<?xml version="1.0" encoding="utf-8"?>
<!-- Generator: Adobe Illustrator 21.1.0, SVG Export Plug-In . SVG Version: 6.00 Build 0)  -->
<svg version="1.1" id="Layer_1" xmlns="http://www.w3.org/2000/svg" xmlns:xlink="http://www.w3.org/1999/xlink" x="0px" y="0px"
	 viewBox="0 0 1400 980" style="enable-background:new 0 0 1400 980;" xml:space="preserve">
<style type="text/css">
	.st0{fill:#262424;}
	.st1{fill:#F9A826;}
	.st2{opacity:0.64;fill:#FFFFFF;}
	.st3{fill:#FFFFFF;}
	.st4{fill:#24DBF0;}
	.st5{opacity:0.51;fill:#FFFFFF;}
	.st6{fill:#F03A3E;}
	.st7{opacity:0.44;fill:#FFFFFF;}
	.st8{fill:#8832AC;}
	.st9{opacity:0.54;fill:#FFFFFF;}
	.st10{fill:#8FD34F;}
	.st11{opacity:0.43;fill:#FFFFFF;}
</style>
<g>
	<g>
		<path class="st0" d="M112.2,240.1l17.1,186.8c0.8,8.3,7.7,14.6,16,14.6h113.5c8.3,0,15.3-6.3,16-14.6l17.1-186.8H112.2z
			 M263.4,417.1H140.8l-13.4-159.8h149.4L263.4,417.1z"/>
		<polygon class="st1" points="249.1,297.6 227,346.6 229.9,297.6 141.5,297.6 149.4,407.5 254.7,407.5 262.6,297.6 		"/>
		<circle class="st2" cx="183.2" cy="331.1" r="6.7"/>
		<circle class="st3" cx="202.6" cy="363.3" r="5"/>
		<circle class="st3" cx="210.9" cy="311.7" r="3.3"/>
		<circle class="st2" cx="169.9" cy="387.7" r="5"/>
		<circle class="st3" cx="163" cy="353.6" r="4.7"/>
		<circle class="st3" cx="157.5" cy="315.1" r="3.9"/>
		<circle class="st2" cx="245.6" cy="339.2" r="4.2"/>
		<circle class="st2" cx="238.1" cy="391" r="3.3"/>
		<path class="st3" d="M264.5,425.6c0,0-27.8,2.9-62.2,2.9s-62.2-2.9-62.2-2.9s27.8-2.9,62.2-2.9S264.5,425.6,264.5,425.6z"/>
		<g>
			<circle class="st3" cx="289.2" cy="247" r="55.8"/>
			<g>
				<path class="st0" d="M289.2,201.3c-25.2,0-45.7,20.5-45.7,45.7s20.5,45.7,45.7,45.7s45.7-20.5,45.7-45.7
					S314.4,201.3,289.2,201.3z M289.2,282.5c-19.6,0-35.5-15.9-35.5-35.5s15.9-35.5,35.5-35.5s35.5,15.9,35.5,35.5
					S308.8,282.5,289.2,282.5z"/>
				<path class="st1" d="M285.8,247l-24.1,7.2c-0.6-2.3-0.9-4.7-0.9-7.2s0.3-4.9,0.9-7.2L285.8,247z"/>
				<path class="st1" d="M286.8,249.4l-11.9,22.2c-4.2-2.5-7.8-6-10.2-10.2L286.8,249.4z"/>
				<path class="st1" d="M286.8,244.6l-22.2-11.9c2.5-4.2,6-7.8,10.2-10.2L286.8,244.6z"/>
				<polygon class="st1" points="296.4,274.5 289.2,250.4 281.9,274.5 				"/>
				<path class="st1" d="M296.4,219.5l-7.2,24.1l-7.2-24.1c2.3-0.6,4.7-0.9,7.2-0.9S294.1,218.9,296.4,219.5z"/>
				<path class="st1" d="M313.7,261.3c-2.5,4.2-6,7.8-10.2,10.2l-11.9-22.2L313.7,261.3z"/>
				<path class="st1" d="M313.7,232.7l-22.2,11.9l11.9-22.2C307.7,224.9,311.3,228.4,313.7,232.7z"/>
				<path class="st1" d="M317.6,247c0,2.5-0.3,4.9-0.9,7.2l-24.1-7.2l24.1-7.2C317.3,242.1,317.6,244.5,317.6,247z"/>
				<g>
					<path class="st1" d="M296.4,219.5l-7.2,24.1l-7.2-24.1c2.3-0.6,4.7-0.9,7.2-0.9S294.1,218.9,296.4,219.5z"/>
					<polygon class="st1" points="296.4,274.5 281.9,274.5 289.2,250.4 					"/>
				</g>
				<g>
					<path class="st1" d="M286.8,244.6l-22.2-11.9c2.5-4.2,6-7.8,10.2-10.2L286.8,244.6z"/>
					<path class="st1" d="M313.7,261.3c-2.5,4.2-6,7.8-10.2,10.2l-11.9-22.2L313.7,261.3z"/>
				</g>
				<g>
					<path class="st1" d="M285.8,247l-24.1,7.2c-0.6-2.3-0.9-4.7-0.9-7.2s0.3-4.9,0.9-7.2L285.8,247z"/>
					<path class="st1" d="M317.6,247c0,2.5-0.3,4.9-0.9,7.2l-24.1-7.2l24.1-7.2C317.3,242.1,317.6,244.5,317.6,247z"/>
				</g>
				<g>
					<path class="st1" d="M286.8,249.4l-11.9,22.2c-4.2-2.5-7.8-6-10.2-10.2L286.8,249.4z"/>
					<path class="st1" d="M313.7,232.7l-22.2,11.9l11.9-22.2C307.7,224.9,311.3,228.4,313.7,232.7z"/>
				</g>
			</g>
		</g>
	</g>
	<g>
		<path class="st0" d="M470,221.6l30.7,219.9h85.5l30.7-219.9H470z M573.3,414.4h-59.8l-26.6-178.1h112.9L573.3,414.4z"/>
		<polygon class="st4" points="577.7,269.4 559.6,319.5 562.8,269.4 503.5,269.4 522.5,405.9 564.3,405.9 583.4,269.4 		"/>
		<path class="st3" d="M592.6,420.3l-70.2,6.5c0,0,74.9,5.9,74.3,5.3C596.2,431.5,592.6,420.3,592.6,420.3z"/>
		<circle class="st5" cx="556.3" cy="348.1" r="3.4"/>
		<circle class="st3" cx="526.8" cy="325" r="4.1"/>
		<circle class="st5" cx="551.4" cy="294.6" r="3.1"/>
		<circle class="st3" cx="522.9" cy="284" r="4.1"/>
		<circle class="st3" cx="562.3" cy="329.9" r="3.1"/>
		<circle class="st5" cx="533.5" cy="370.3" r="3.1"/>
		<circle class="st3" cx="550.8" cy="388.8" r="3.8"/>
		<circle class="st3" cx="540.9" cy="344.9" r="2.8"/>
		<circle class="st5" cx="534.5" cy="307.1" r="2.8"/>
	</g>
	<g>
		<path class="st0" d="M941.2,225l-59.8-0.1l-9.2,0l-84.3-0.1c1.5,15.4,4.7,42.8,9.3,46.9c6.4,5.9,41.3,18.8,46.5,42.3
			c0.7,3,1.3,5.9,1.9,8.6c3.5,14.3,16.3,24.2,31,24.2c14.6,0,27.4-9.9,30.9-24.1c0.7-2.7,1.3-5.5,2-8.6
			c5.2-23.5,40.2-36.3,46.6-42.2c4.6-4.2,7.9-31.5,9.5-46.9L941.2,225z M941.4,264.8c-1.3,0.8-3.5,2.1-5.4,3.1
			c-13.3,7.5-35.7,20-40.5,41.5c-0.6,2.8-1.2,5.3-1.8,7.7c-1.9,7.8-9,13.3-17.1,13.3c-8.2,0-15.2-5.5-17.1-13.4
			c-0.6-2.3-1.1-4.9-1.7-7.6l0-0.1c-4.7-21.5-27-34.1-40.3-41.7c-1.9-1-4-2.3-5.4-3.1c-1-2.8-2.6-9.9-4.3-23.4l138,0.2
			C944.1,254.9,942.4,262,941.4,264.8z"/>
		<path class="st6" d="M923.8,251.7l-2.4,9.6L899.6,278l13.5-17.3l1.1-9h-92.3c1.1,7.1,2,11.1,2.7,13c1.1,0.7,2.9,1.7,4.3,2.5
			c10.8,6.1,28.8,16.3,32.6,33.7l0,0.1c0.5,2.2,0.9,4.3,1.4,6.1c1.5,6.4,7.2,10.8,13.8,10.8c6.6,0,12.3-4.4,13.8-10.8
			c0.5-1.9,0.9-4,1.4-6.2c3.9-17.4,21.9-27.5,32.7-33.5c1.5-0.8,3.3-1.8,4.4-2.5c0.7-1.8,1.7-5.9,2.7-13.1H923.8z"/>
		<rect x="868.2" y="337.6" class="st0" width="16.7" height="91"/>
		<path class="st0" d="M896.4,422.9c-6-2.3-9.9-9.6-11.5-13.5h-4.5h-7.7h-4.5c-1.6,3.9-5.6,11.2-11.5,13.5
			c-8.3,3.2-41.7,10.9-41.7,18.6h57.7h7.7h57.7C938.1,433.8,904.8,426.1,896.4,422.9z"/>
		<circle class="st3" cx="870.5" cy="267.5" r="4.1"/>
		<circle class="st7" cx="887.2" cy="294.9" r="2.9"/>
		
			<ellipse transform="matrix(0.5589 -0.8292 0.8292 0.5589 131.0256 857.9223)" class="st3" cx="871.9" cy="305.8" rx="3.1" ry="3.1"/>
		
			<ellipse transform="matrix(0.5589 -0.8292 0.8292 0.5589 185.5276 864.63)" class="st7" cx="905.5" cy="257.9" rx="3.1" ry="3.1"/>
		
			<ellipse transform="matrix(0.7071 -0.7071 0.7071 0.7071 63.0548 669.6735)" class="st7" cx="839.9" cy="258.7" rx="2.6" ry="2.6"/>
		
			<ellipse transform="matrix(0.7071 -0.7071 0.7071 0.7071 50.5286 698.2769)" class="st3" cx="868.2" cy="288.1" rx="2.1" ry="2.1"/>
		
			<ellipse transform="matrix(0.7071 -0.7071 0.7071 0.7071 68.2176 705.8231)" class="st7" cx="886.1" cy="270.6" rx="2.1" ry="2.1"/>
		<path class="st3" d="M908.6,433c0,0-13.6,1.2-31.6,1.2c-18,0-33.4-1.2-33.4-1.2s7.8-2,18-4.6c4.6-1.1,8.9-5.7,14.5-5.7
			c6.4,0,10.7,4.7,15.7,6.1C900.9,431.3,908.6,433,908.6,433z"/>
	</g>
	<g>
		<path class="st0" d="M1267.2,220.9h-54.5h-5.1h-54.5c-15.1,27.1-37.4,79.7-0.3,105.6c43.9,30.6,48.8,46.4,49.2,62.3
			c0.2,8.2-1.9,16.3-6.6,23c-2.7,4-6,7-9,8.1c-3.3,1.2-9.6,2.9-16.7,4.9c-9.9,2.9-7.8,16.7,2.6,16.7h35.2h5.1h35.2
			c10.4,0,12.6-13.8,2.6-16.7c-7.1-2.1-13.5-3.8-16.7-4.9c-3-1.1-6.2-4.1-9-8.1c-4.6-6.7-6.8-14.8-6.6-23
			c0.4-15.9,5.3-31.7,49.2-62.3C1304.6,300.7,1282.3,248,1267.2,220.9z M1260.2,316c-20.7,14.5-33.9,26.3-42,37h-15.9
			c-8.2-10.7-21.3-22.6-42-37c-4.4-3.1-18-12.5-14-40c1.3-9.3,10.9-32.3,14.5-41h99.6c3.5,8.7,12.6,31.6,13.9,41
			C1278.2,303.5,1264.7,312.9,1260.2,316z"/>
		<path class="st8" d="M1261.6,277.8c-0.7-5.1-2.1-10.6-4.1-16.5l-9.8,0.2c1.4,24.7-17.8,41.8-17.8,41.8c6-15.7,8.1-32.8,5.9-42
			H1163c-2,5.9-3.4,11.4-4.1,16.5c-2.8,19.7,5.2,25.3,8.7,27.7c16.2,11.3,28.3,21.3,37.3,30.9h10.7c9-9.6,21.1-19.6,37.3-30.9
			C1256.3,303.1,1264.4,297.5,1261.6,277.8z"/>
		
			<ellipse transform="matrix(0.5589 -0.8292 0.8292 0.5589 284.9716 1117.3247)" class="st7" cx="1192.7" cy="290.8" rx="3.1" ry="3.1"/>
		<circle class="st3" cx="1209.1" cy="315.1" r="4.1"/>
		<circle class="st3" cx="1224.1" cy="271.2" r="2.9"/>
		<circle class="st7" cx="1172.1" cy="270.9" r="2.2"/>
		<circle class="st7" cx="1233.3" cy="309.8" r="2.1"/>
		<circle class="st7" cx="1254.8" cy="279.9" r="1.9"/>
		<circle class="st3" cx="1182.5" cy="303.8" r="2.2"/>
		<circle class="st3" cx="1217.5" cy="286.5" r="1.7"/>
		<circle class="st3" cx="1202.2" cy="274.6" r="1.7"/>
		<path class="st3" d="M1236.9,428.3c1.7,0.4,1.5,2.9-0.3,3c-6.3,0.3-15,0.7-24.9,0.7c-10.7,0-20.5-0.4-27.4-0.8
			c-1.7-0.1-2-2.6-0.3-3c3-0.8,6.7-1.7,10.6-2.7c5.1-1.3,9.9-6.3,16.1-6.3c7.1,0,11.8,5.2,17.4,6.7
			C1231.2,426.8,1234.3,427.6,1236.9,428.3z"/>
	</g>
	<g>
		<polygon class="st6" points="244.2,591.2 227.4,640.7 222.5,591.2 161,591.2 161,740 259,740 259,591.2 		"/>
		<path class="st0" d="M203.3,772.5c0,0,59.8-2.9,79.1-4.4V547.7h-145v241.1h145v-9.4L203.3,772.5z M149.2,559.4h121.5v195.9H149.2
			V559.4z"/>
		<circle class="st9" cx="221.5" cy="658.7" r="4.6"/>
		
			<ellipse transform="matrix(0.136 -0.9907 0.9907 0.136 -508.9533 797.207)" class="st3" cx="202.6" cy="690.4" rx="4.6" ry="4.6"/>
		<ellipse transform="matrix(0.136 -0.9907 0.9907 0.136 -500.7606 865.904)" class="st9" cx="246" cy="720" rx="4.6" ry="4.6"/>
		
			<ellipse transform="matrix(0.136 -0.9907 0.9907 0.136 -556.4279 796.845)" class="st3" cx="178.6" cy="717.4" rx="4.6" ry="4.6"/>
		
			<ellipse transform="matrix(0.136 -0.9907 0.9907 0.136 -467.0194 834.0955)" class="st3" cx="244.7" cy="684.8" rx="2.8" ry="2.8"/>
		
			<ellipse transform="matrix(0.136 -0.9907 0.9907 0.136 -411.3212 790.6342)" class="st9" cx="247.6" cy="631.1" rx="2.8" ry="2.8"/>
		
			<ellipse transform="matrix(0.136 -0.9907 0.9907 0.136 -449.2904 702.5257)" class="st9" cx="178.1" cy="608.8" rx="2.8" ry="2.8"/>
		<circle class="st3" cx="191.1" cy="641" r="3.5"/>
		<circle class="st9" cx="174.6" cy="669.8" r="2.9"/>
		<circle class="st3" cx="211.4" cy="615.4" r="2.9"/>
	</g>
	<g>
		<path class="st0" d="M583.8,772.1c-7.1-2.1-13.5-3.8-16.7-4.9c-3-1.1-6.2-4.1-9-8.1c-4.6-6.7-6.8-14.8-6.6-23
			c0-1.2,0.1-2.3,0.2-3.5h-16.6c0.1,1.2,0.2,2.3,0.2,3.5c0.2,8.2-1.9,16.3-6.6,23c-2.7,4-6,7-9,8.1c-3.3,1.2-9.6,2.9-16.7,4.9
			c-9.9,2.9-7.8,16.7,2.6,16.7h75.4C591.5,788.8,593.7,775,583.8,772.1z"/>
		<path class="st3" d="M569.9,775.6c1.7,0.4,1.5,2.9-0.3,3c-6.3,0.3-15,0.7-24.9,0.7c-10.7,0-20.5-0.4-27.4-0.8
			c-1.7-0.1-2-2.6-0.3-3c3-0.8,6.7-1.7,10.6-2.7c5.1-1.3,9.9-6.3,16.1-6.3c7.1,0,11.8,5.2,17.4,6.7
			C564.2,774.1,567.2,774.9,569.9,775.6z"/>
		<path class="st0" d="M589.3,613.1c-15.7-34.9,13.9-79,13.9-79h-57.9h-3.9h-57.9c0,0,29.6,44.1,13.9,79
			c-15.3,34.1-56.6,121.5,43.9,128.4c0.6,0.1,1.3,0.1,2,0.1l2-0.1C645.9,734.6,604.7,647.2,589.3,613.1z M592.9,707.9
			c-7.3,12.2-23.6,19.2-48.4,20.9l-1.1,0.1c-0.3,0-0.6,0-0.9-0.1l-0.2,0c-24.8-1.7-41.1-8.7-48.4-20.9
			c-14.3-23.9,5.1-66.9,14.4-87.6l0.9-1.9c11.3-25.1,3.6-53.1-4.4-71.4H582c-8,18.3-15.7,46.3-4.4,71.4l0.9,1.9
			C587.8,640.9,607.2,684,592.9,707.9z"/>
		<ellipse class="st0" cx="543.4" cy="742.1" rx="30" ry="10.6"/>
		<path class="st1" d="M583.9,667.4c-4.1-16-11.3-31.9-16-42.4l-0.9-2c-4.9-10.9-8.8-26.6-6.4-47.1h-4.4
			c-3.9,15.6-0.1,44.7-0.1,44.7c-7.4-11.9-11.2-33.6-12.7-44.7h-17.2c2.5,20.6-1.5,36.3-6.4,47.1l-0.9,2
			c-4.7,10.5-11.9,26.4-16,42.4c-4.3,16.6-4.2,29.4,0.2,36.8c5.1,8.6,19,13.9,40.1,15.4l0.2,0l0.2,0c21-1.5,34.9-6.8,40-15.4
			C588.1,696.7,588.2,684,583.9,667.4z"/>
		<circle class="st9" cx="565.3" cy="640.7" r="4.6"/>
		
			<ellipse transform="matrix(0.136 -0.9907 0.9907 0.136 -194.1462 1122.2642)" class="st3" cx="546.3" cy="672.4" rx="4.6" ry="4.6"/>
		
			<ellipse transform="matrix(0.136 -0.9907 0.9907 0.136 -203.228 1159.6124)" class="st9" cx="563.2" cy="696.3" rx="4.6" ry="4.6"/>
		
			<ellipse transform="matrix(0.136 -0.9907 0.9907 0.136 -241.6208 1121.9021)" class="st3" cx="522.4" cy="699.5" rx="4.6" ry="4.6"/>
		
			<ellipse transform="matrix(0.136 -0.9907 0.9907 0.136 -191.149 1088.5388)" class="st3" cx="528.5" cy="653.9" rx="2.8" ry="2.8"/>
		<circle class="st3" cx="534.9" cy="623" r="3.5"/>
	</g>
	<g>
		<g>
			<rect x="867.8" y="647.2" class="st0" width="16.7" height="128.7"/>
			<path class="st0" d="M896.1,770.2c-6-2.3-9.9-9.6-11.5-13.5H880h-7.7h-4.5c-1.6,3.9-5.6,11.2-11.5,13.5
				c-8.3,3.2-41.7,10.9-41.7,18.6h57.7h7.7h57.7C937.7,781.1,904.4,773.4,896.1,770.2z"/>
			<path class="st3" d="M908.2,780.3c0,0-13.6,1.2-31.6,1.2c-18,0-33.4-1.2-33.4-1.2s7.8-2,18-4.6c4.6-1.1,8.9-5.7,14.5-5.7
				c6.4,0,10.7,4.7,15.7,6.1C900.5,778.6,908.2,780.3,908.2,780.3z"/>
		</g>
		<path class="st0" d="M766.8,547.2l110,120.4l110-120.4H766.8z M795.9,560h161.8l-80.9,88.6L795.9,560z"/>
		<polygon class="st10" points="912,572.9 889.3,594.7 897.5,572.9 825,572.9 876.8,629.6 928.7,572.9 		"/>
		
			<ellipse transform="matrix(0.136 -0.9907 0.9907 0.136 172.5351 1363.1002)" class="st3" cx="867.7" cy="582.6" rx="3.7" ry="3.7"/>
		
			<ellipse transform="matrix(0.136 -0.9907 0.9907 0.136 150.2968 1362.7122)" class="st9" cx="856.4" cy="595.2" rx="2.6" ry="2.6"/>
		<ellipse transform="matrix(0.5 -0.866 0.866 0.5 -95.2639 1064.2107)" class="st9" cx="874" cy="614.6" rx="2.7" ry="2.7"/>
		<ellipse transform="matrix(0.5 -0.866 0.866 0.5 -65.9233 1075.6145)" class="st9" cx="898.5" cy="594.9" rx="1.8" ry="1.8"/>
		<ellipse transform="matrix(0.5 -0.866 0.866 0.5 -80.2263 1020.3841)" class="st3" cx="843.6" cy="579.7" rx="1.8" ry="1.8"/>
		<ellipse transform="matrix(0.5 -0.866 0.866 0.5 -79.7357 1059.6877)" class="st3" cx="877.8" cy="598.9" rx="2.7" ry="2.7"/>
	</g>
	<g>
		<path class="st0" d="M1159.5,732.5c-0.7,5.1-3.4,9.6-7.6,12.5c-7.5,5.3-12.3,14.9-11.7,20.7v0c0,5,9.7,10.1,21.5,14.5
			c15.5,5.7,32,8.6,48.5,8.6h0.3c17.8,0,35.6-3.3,52.1-9.9c10-4,17.8-8.6,17.8-13.1v0c0.6-5.8-4.2-15.4-11.7-20.7
			c-4.2-2.9-6.9-7.5-7.6-12.5c-5-38.5,22.7-189.9,22.7-189.9h-146.9C1136.8,542.6,1164.5,694,1159.5,732.5z M1152.1,555.4h116.2
			c-7.1,40.9-24.4,145.5-20.1,178.7c0.7,5.2,2.6,10,5.7,14.2l-7.9,1.9c-26.2,6.4-53.7,5.7-79.6-1.9l0,0c3-4.1,5-9,5.7-14.2
			C1176.5,700.9,1159.3,596.3,1152.1,555.4z"/>
		<path class="st6" d="M1250.2,586.2H1240l-15.5,51.3l1.8-51.3h-55.9c16,98,16.3,135,14.7,148.8c16,5.4,33.2,5.5,49.3,0.4l1.2-0.4
			C1233.9,721.2,1234.2,684.1,1250.2,586.2z"/>
		<ellipse transform="matrix(0.136 -0.9907 0.9907 0.136 382.9183 1777.136)" class="st3" cx="1210.3" cy="669" rx="3.7" ry="3.7"/>
		
			<ellipse transform="matrix(0.136 -0.9907 0.9907 0.136 395.1021 1738.6761)" class="st3" cx="1194.3" cy="642.8" rx="2.8" ry="2.8"/>
		
			<ellipse transform="matrix(0.136 -0.9907 0.9907 0.136 426.3439 1697.7583)" class="st11" cx="1186.5" cy="604.5" rx="2.8" ry="2.8"/>
		
			<ellipse transform="matrix(0.136 -0.9907 0.9907 0.136 447.0678 1731.9926)" class="st3" cx="1216.5" cy="609.7" rx="3.7" ry="3.7"/>
		
			<ellipse transform="matrix(0.136 -0.9907 0.9907 0.136 413.3395 1786.7943)" class="st11" cx="1231.1" cy="656.4" rx="3.5" ry="3.5"/>
		
			<ellipse transform="matrix(0.136 -0.9907 0.9907 0.136 353.7261 1828.4333)" class="st11" cx="1225.1" cy="711.4" rx="3.5" ry="3.5"/>
		
			<ellipse transform="matrix(0.136 -0.9907 0.9907 0.136 326.6624 1813.3026)" class="st3" cx="1202.9" cy="719.4" rx="3.5" ry="3.5"/>
		
			<ellipse transform="matrix(0.8142 -0.5806 0.5806 0.8142 -177.1334 824.5613)" class="st11" cx="1199.7" cy="689" rx="2.8" ry="2.8"/>
	</g>
</g>
</svg>
