<svg height="512pt" viewBox="0 0 512 512.00049" width="512pt" xmlns="http://www.w3.org/2000/svg"><path d="m45.628906 68.035156-42.679687 42.675782c-4.445313 4.441406-3.761719 11.808593 1.367187 15.371093l181.511719 126.195313-59.8125 68.589844h-115.957031c-4.066406 0-7.734375 2.453124-9.292969 6.210937-1.554687 3.757813-.6953125 8.085937 2.179687 10.960937l171.015626 171.015626c2.878906 2.878906 7.203124 3.734374 10.960937 2.179687s6.210937-5.222656 6.210937-9.292969v-115.957031l68.585938-59.8125 126.199219 181.511719c3.589843 5.160156 10.953125 5.789062 15.371093 1.367187l42.675782-42.679687c2.6875-2.691406 3.628906-6.667969 2.433594-10.277344l-29.894532-90.292969 17.179688-17.179687c3.925781-3.925782 3.925781-10.296875 0-14.226563-3.929688-3.929687-10.296875-3.929687-14.226563 0l-10.03125 10.03125-14.15625-42.753906 17.074219-17.066406c3.929688-3.929688 3.929688-10.296875.003906-14.226563-3.925781-3.933594-10.296875-3.933594-14.226562-.003906l-9.929688 9.921875-16.996094-51.335937 64.304688-56.078126c25.777344-22.285156 46.273438-46.839843 60.914062-72.976562 6.84375-12.203125 11.855469-23.652344 14.90625-34.023438 1.566407-5.328124-1.484374-10.921874-6.816406-12.488281-5.324218-1.5625-10.921875 1.484375-12.484375 6.816407-2.625 8.921874-7.050781 18.96875-13.15625 29.859374-13.5 24.097657-32.515625 46.839844-56.550781 67.621094-36.855469 32.136719-287.515625 250.726563-289.296875 252.277344-8.671875 7.707031-21.894531 7.320312-30.101563-.878906-8.203124-8.210938-8.59375-21.433594-.820312-30.175782 15.953125-18.296874 238.269531-273.234374 252.242188-289.257812 20.753906-24.003906 43.496093-43.019531 67.59375-56.523438 11.238281-6.296874 21.566406-10.804687 30.699218-13.390624 5.34375-1.515626 8.449219-7.078126 6.933594-12.421876-1.515625-5.347656-7.078125-8.453124-12.421875-6.933593-10.648437 3.015625-22.4375 8.128906-35.042969 15.195312-26.144531 14.644531-50.699218 35.140625-72.953125 60.882813l-56.105469 64.339844-51.335937-16.996094 9.921875-9.929688c3.929688-3.929687 3.925781-10.300781-.003906-14.226562-3.925782-3.925782-10.296875-3.925782-14.226563.003906l-17.066406 17.074219-42.753906-14.15625 10.03125-10.03125c3.925781-3.925781 3.925781-10.296875 0-14.226563-3.929688-3.925781-10.296875-3.925781-14.226563 0l-17.179687 17.179688-90.292969-29.894532c-3.613281-1.195312-7.585938-.253906-10.277344 2.433594zm379.71875 388.496094-29.777344 29.789062-120.59375-173.449218 79.773438-69.566406zm-279.039062-31.460938 24.707031-21.542968v74.125l-43.101563-43.097656c6.644532-1.523438 12.988282-4.679688 18.394532-9.484376zm-59.316406-59.453124c-4.835938 5.441406-7.996094 11.820312-9.527344 18.488281l-43.117188-43.121094h74.125zm112.136718-128.59375-173.449218-120.59375 29.789062-29.78125 213.226562 70.601562zm0 0"/><path d="m434.546875 63.226562-21.339844 21.339844c-3.925781 3.925782-3.925781 10.296875 0 14.226563 3.929688 3.925781 10.296875 3.925781 14.230469 0l21.335938-21.335938c3.925781-3.929687 3.925781-10.300781 0-14.230469-3.929688-3.925781-10.300782-3.925781-14.226563 0zm0 0"/><path d="m504.449219 18.363281c0 5.558594-4.503907 10.0625-10.058594 10.0625-5.558594 0-10.0625-4.503906-10.0625-10.0625 0-5.554687 4.503906-10.058593 10.0625-10.058593 5.554687 0 10.058594 4.503906 10.058594 10.058593zm0 0"/></svg>